<!DOCTYPE svg PUBLIC "-//W3C//DTD SVG 1.1//EN" "http://www.w3.org/Graphics/SVG/1.1/DTD/svg11.dtd">
<!-- Uploaded to: SVG Repo, www.svgrepo.com, Transformed by: SVG Repo Mixer Tools -->
<svg fill="#ffffff" version="1.1" id="Capa_1" xmlns="http://www.w3.org/2000/svg" xmlns:xlink="http://www.w3.org/1999/xlink" width="800px" height="800px" viewBox="0 0 50.962 50.962" xml:space="preserve" stroke="#ffffff">
<g id="SVGRepo_bgCarrier" stroke-width="0"/>
<g id="SVGRepo_tracerCarrier" stroke-linecap="round" stroke-linejoin="round"/>
<g id="SVGRepo_iconCarrier"> <g> <g> <path d="M29.279,30.814c0,0.192,0.104,0.373,0.271,0.474l3.082,1.79c0.086,0.05,0.181,0.074,0.272,0.074 c0.168,0,0.334-0.079,0.44-0.227c0.789-1.076,1.224-2.398,1.224-3.729c0-0.287-0.021-0.58-0.062-0.869 c-0.024-0.183-0.14-0.337-0.302-0.416c-0.163-0.079-0.354-0.071-0.514,0.02l-3.539,2.056c-0.021,0.013-0.041,0.024-0.06,0.042 l-0.547,0.312C29.385,30.438,29.279,30.619,29.279,30.814z"/> <path d="M27.939,27.128c0.02,0.011,0.035,0.021,0.055,0.026l0.576,0.332c0.082,0.049,0.178,0.07,0.271,0.07 c0.094,0,0.188-0.021,0.272-0.07c0.168-0.099,0.272-0.277,0.272-0.475v-3.567c0-0.279-0.211-0.514-0.487-0.542 c-1.611-0.175-3.248,0.303-4.533,1.3c-0.146,0.11-0.223,0.288-0.211,0.47c0.014,0.183,0.115,0.345,0.272,0.438L27.939,27.128z"/> <path d="M30.435,29.163c0.095,0,0.188-0.023,0.272-0.072l3.082-1.79c0.244-0.142,0.34-0.439,0.225-0.695 c-0.666-1.486-1.863-2.645-3.373-3.262c-0.168-0.068-0.357-0.051-0.512,0.052c-0.148,0.103-0.242,0.271-0.242,0.454v4.771 c0,0.193,0.104,0.375,0.273,0.473C30.246,29.14,30.34,29.163,30.435,29.163z"/> <path d="M27.586,35.492c0.221,0.022,0.441,0.035,0.656,0.035c1.375,0,2.744-0.469,3.852-1.315 c0.146-0.109,0.227-0.285,0.214-0.469c-0.015-0.183-0.112-0.346-0.271-0.438l-4.119-2.394c-0.168-0.099-0.375-0.101-0.545-0.001 S27.1,31.187,27.1,31.385v3.562C27.096,35.228,27.307,35.464,27.586,35.492z"/> <path d="M27.185,27.586c0-0.194-0.104-0.377-0.275-0.475l-3.076-1.772c-0.242-0.139-0.551-0.072-0.715,0.153 c-0.775,1.072-1.205,2.388-1.205,3.703c0,0.271,0.018,0.542,0.051,0.809c0.023,0.182,0.135,0.339,0.299,0.42 c0.076,0.037,0.16,0.059,0.244,0.059c0.094,0,0.187-0.022,0.271-0.071l4.133-2.354C27.078,27.962,27.185,27.783,27.185,27.586z"/> <path d="M25.781,29.275l-3.107,1.771c-0.244,0.139-0.342,0.438-0.229,0.694c0.664,1.513,1.871,2.688,3.401,3.313 c0.066,0.027,0.138,0.041,0.207,0.041c0.105,0,0.213-0.03,0.306-0.095c0.149-0.102,0.239-0.271,0.239-0.451v-4.8 c0-0.194-0.102-0.376-0.271-0.473C26.158,29.179,25.951,29.18,25.781,29.275z"/> <path d="M50.75,13.099l-0.209,0.312c-0.029,0.044-0.088,0.056-0.133,0.023l-0.77-0.516c-0.043-0.028-0.057-0.09-0.025-0.132 l0.25-0.373L49.252,12l-1.459,2.176c-0.274,0.41-0.83,0.521-1.24,0.245L39.4,9.62c-0.408-0.272-0.52-0.83-0.244-1.239l1.459-2.174 l-0.613-0.411l-0.25,0.371c-0.029,0.045-0.088,0.057-0.131,0.026L38.85,5.676c-0.043-0.03-0.057-0.089-0.025-0.132l0.209-0.312 c-0.449-0.104-0.936,0.067-1.205,0.475l-7.862,11.719l-0.099,0.145l-0.813,1.214c-0.271,0.403-0.246,0.921,0.021,1.295 l0.209-0.312c0.029-0.044,0.088-0.057,0.134-0.025l0.771,0.516c0.043,0.029,0.057,0.09,0.024,0.134l-0.25,0.371l0.612,0.413 l1.449-2.159l0.096-0.145l0.041-0.061c0.272-0.408,0.83-0.521,1.238-0.245l1.821,1.225l0.435,0.291l4.897,3.285 c0.408,0.274,0.519,0.83,0.244,1.239l-0.041,0.061l-0.097,0.144l-1.448,2.161l0.612,0.411l0.248-0.373 c0.031-0.044,0.09-0.056,0.133-0.024l0.771,0.517c0.043,0.03,0.055,0.091,0.023,0.134l-0.206,0.312 c0.444,0.104,0.935-0.067,1.202-0.475l0.816-1.215l0.096-0.144l7.861-11.721C51.041,13.989,51.019,13.475,50.75,13.099z M37.826,7.033l0.359-0.539c0.029-0.044,0.09-0.058,0.135-0.025l0.768,0.517c0.045,0.028,0.059,0.09,0.025,0.133l-0.359,0.539 c-0.029,0.044-0.09,0.058-0.135,0.025l-0.77-0.516C37.807,7.138,37.797,7.077,37.826,7.033z M36.828,8.52l0.359-0.539 c0.029-0.044,0.092-0.057,0.135-0.025l0.77,0.517c0.043,0.028,0.057,0.089,0.025,0.133l-0.361,0.538 c-0.028,0.045-0.09,0.059-0.135,0.026l-0.769-0.515C36.81,8.623,36.799,8.562,36.828,8.52z M35.83,10.006l0.363-0.538 c0.027-0.044,0.088-0.058,0.133-0.025l0.771,0.515c0.043,0.03,0.056,0.091,0.024,0.136l-0.36,0.538 c-0.028,0.043-0.091,0.056-0.136,0.025l-0.768-0.516C35.812,10.109,35.803,10.05,35.83,10.006z M34.834,11.491l0.361-0.538 c0.027-0.046,0.088-0.058,0.133-0.025l0.771,0.516c0.043,0.028,0.056,0.089,0.022,0.134l-0.361,0.538 c-0.025,0.045-0.088,0.058-0.131,0.025l-0.77-0.516C34.814,11.597,34.805,11.536,34.834,11.491z M33.838,12.979l0.361-0.539 c0.027-0.044,0.088-0.057,0.133-0.025l0.768,0.516c0.043,0.029,0.057,0.09,0.025,0.134l-0.361,0.54 c-0.027,0.043-0.09,0.056-0.133,0.022l-0.768-0.515C33.818,13.081,33.807,13.022,33.838,12.979z M31.207,18.904l-0.361,0.538 c-0.027,0.043-0.088,0.056-0.135,0.025l-0.768-0.517c-0.043-0.028-0.059-0.09-0.027-0.134l0.363-0.538 c0.028-0.045,0.088-0.057,0.131-0.025l0.771,0.515C31.226,18.801,31.234,18.859,31.207,18.904z M32.135,17.52l-0.361,0.54 c-0.029,0.042-0.09,0.056-0.133,0.025l-0.77-0.517c-0.043-0.029-0.059-0.089-0.025-0.133l0.361-0.54 c0.029-0.043,0.09-0.055,0.133-0.025l0.771,0.518C32.15,17.417,32.162,17.476,32.135,17.52z M33.131,16.034l-0.359,0.538 c-0.029,0.045-0.091,0.058-0.135,0.026l-0.77-0.517c-0.045-0.028-0.057-0.089-0.025-0.134l0.359-0.538 c0.031-0.045,0.09-0.057,0.135-0.025l0.77,0.517C33.15,15.932,33.16,15.989,33.131,16.034z M33.635,15.112l-0.77-0.517 c-0.043-0.028-0.057-0.089-0.025-0.133l0.361-0.538c0.027-0.045,0.088-0.058,0.133-0.027l0.768,0.517 c0.047,0.03,0.059,0.091,0.027,0.134l-0.361,0.538C33.738,15.132,33.678,15.143,33.635,15.112z M39.31,20.764l-0.256-0.174 l-4.838-3.245c-0.408-0.273-0.519-0.83-0.242-1.239l3.365-5.016c0.272-0.41,0.83-0.52,1.237-0.244l7.154,4.8 c0.408,0.273,0.521,0.829,0.242,1.24l-3.365,5.017c-0.272,0.408-0.83,0.519-1.238,0.243L39.31,20.764z M41.996,26.144 l-0.359,0.539c-0.027,0.044-0.088,0.059-0.135,0.025l-0.768-0.516c-0.043-0.029-0.059-0.093-0.027-0.135l0.361-0.54 c0.027-0.045,0.09-0.056,0.133-0.024l0.771,0.517C42.016,26.042,42.027,26.1,41.996,26.144z M42.926,24.762L42.566,25.3 c-0.031,0.044-0.091,0.058-0.137,0.025l-0.77-0.518c-0.043-0.028-0.057-0.089-0.025-0.133l0.361-0.539 c0.029-0.043,0.09-0.057,0.133-0.025l0.771,0.516C42.943,24.657,42.955,24.718,42.926,24.762z M43.922,23.274l-0.357,0.537 c-0.031,0.044-0.092,0.058-0.137,0.026l-0.77-0.516c-0.043-0.029-0.057-0.091-0.023-0.135l0.359-0.537 c0.031-0.047,0.09-0.057,0.133-0.026l0.771,0.516C43.939,23.171,43.953,23.23,43.922,23.274z M44.922,21.788l-0.363,0.539 c-0.027,0.043-0.088,0.057-0.131,0.025l-0.77-0.517c-0.045-0.029-0.059-0.09-0.025-0.134l0.359-0.538 c0.029-0.045,0.09-0.057,0.133-0.025l0.771,0.517C44.938,21.685,44.949,21.744,44.922,21.788z M45.916,20.303l-0.359,0.54 c-0.029,0.043-0.09,0.054-0.135,0.024l-0.768-0.518c-0.045-0.027-0.059-0.089-0.025-0.132l0.359-0.539 c0.029-0.045,0.09-0.057,0.135-0.025l0.771,0.516C45.935,20.198,45.947,20.26,45.916,20.303z M46.914,18.815l-0.361,0.539 c-0.027,0.045-0.09,0.058-0.133,0.026l-0.77-0.517c-0.043-0.028-0.057-0.089-0.025-0.135l0.361-0.537 c0.027-0.047,0.09-0.058,0.133-0.027l0.77,0.517C46.935,18.712,46.945,18.771,46.914,18.815z M47.91,17.33l-0.359,0.538 c-0.027,0.044-0.09,0.057-0.135,0.025l-0.768-0.517c-0.043-0.028-0.059-0.091-0.027-0.134l0.363-0.538 c0.025-0.045,0.088-0.057,0.131-0.026l0.77,0.518C47.93,17.226,47.941,17.286,47.91,17.33z M48.908,15.845l-0.359,0.538 c-0.03,0.044-0.092,0.057-0.135,0.026l-0.771-0.518c-0.043-0.027-0.053-0.09-0.023-0.134l0.359-0.539 c0.029-0.044,0.092-0.056,0.135-0.025l0.77,0.517C48.926,15.74,48.939,15.801,48.908,15.845z M49.906,14.356l-0.363,0.539 c-0.027,0.045-0.09,0.059-0.133,0.027l-0.769-0.517c-0.043-0.028-0.057-0.091-0.024-0.135l0.36-0.539 c0.029-0.043,0.089-0.055,0.132-0.025l0.771,0.518C49.924,14.255,49.935,14.314,49.906,14.356z"/> <path d="M43.269,28.322c-0.104,0.155-0.229,0.293-0.364,0.42c-0.057,0.055-0.113,0.104-0.174,0.149 c-0.072,0.059-0.146,0.105-0.223,0.155c-0.193,0.129-0.402,0.23-0.629,0.305c-0.002,0.001-0.004,0.002-0.008,0.004l0.381,10.498 c0,1.561-1.27,2.827-2.828,2.827H5.91c-1.359,0-2.498-0.965-2.769-2.209h4.252c2.412,0,4.373-1.961,4.371-4.428l-0.498-13.752 c0-2.409-1.961-4.37-4.373-4.37H3.924c0.283-1.263,1.408-2.21,2.754-2.21h22.59l2.803-4.175l-1.328-2.376 c-0.291-0.442-0.928-0.998-2.387-0.998h-0.453H17.431h-0.457c-1.461,0-2.094,0.556-2.383,0.998l-1.941,3.47h-1.131 c-0.25-0.638-1.526-1.124-3.076-1.124c-1.68,0-3.038,0.57-3.114,1.285c-2.607,0.613-4.558,2.946-4.558,5.69L0,39.852 c0,3.261,2.649,5.909,5.91,5.909h33.514c3.26,0,5.91-2.648,5.908-5.967l-0.5-13.812L43.269,28.322z"/> <path d="M39.172,24.282l-6.098-4.093l-0.73,1.089c2.861,1.487,4.826,4.478,4.826,7.919c0,4.922-4.006,8.926-8.926,8.926 c-4.922,0-8.926-4.004-8.926-8.926c0-4.668,3.604-8.503,8.174-8.889c-0.275-0.782-0.186-1.67,0.291-2.378l0.496-0.739 c-0.014,0-0.023-0.003-0.035-0.003c-6.622,0-12.009,5.388-12.009,12.008c0,6.621,5.388,12.008,12.009,12.008 c2.828,0,5.428-0.988,7.479-2.632c0.293,0.643,0.938,1.091,1.689,1.091c1.029,0,1.859-0.834,1.859-1.861 c0-0.795-0.498-1.469-1.197-1.733c1.338-1.91,2.137-4.225,2.168-6.723c-0.252-0.1-0.482-0.243-0.648-0.454 c-0.223-0.031-0.436-0.113-0.623-0.24l-0.613-0.41c-0.338-0.228-0.568-0.576-0.646-0.976c-0.078-0.396,0.004-0.812,0.229-1.146 L39.172,24.282z"/> <path d="M28.645,21.548c-0.279-0.082-0.521-0.257-0.717-0.479c-4.346,0.166-7.834,3.743-7.834,8.13 c0,4.491,3.656,8.146,8.146,8.146s8.146-3.653,8.146-8.146c0-3.173-1.83-5.922-4.483-7.269l-0.062,0.097 c-0.223,0.326-0.562,0.555-0.947,0.639c2.58,1.052,4.402,3.583,4.402,6.534c0,3.891-3.164,7.055-7.055,7.055 s-7.057-3.164-7.057-7.055s3.166-7.056,7.057-7.056c0.406,0,0.807,0.042,1.191,0.108l-0.33-0.224 C28.912,21.899,28.76,21.732,28.645,21.548z"/> </g> </g> </g>
</svg>